# xmcd
#
# Track frame offsets:
#	150
#	12667
#	24014
#	37598
#	51925
#	64379
#	74686
#	90563
#	106730
#	116544
#	127229
#
# Disc length: 1844 seconds
#
# Revision: 1
# Processed by: cddbd v1.5.2PL0 Copyright (c) Steve Scherf et al.
# Submitted via: audiograbber 1.83.01
#
DISCID=9107320b
DTITLE=David Ball - Heartaches by the Number
DYEAR=2007
DGENRE=Country
TTITLE0=Pick Me Up on Your Way Down
TTITLE1=Stop the World and Let Me Off
TTITLE2=Heartaches by the Numbers
TTITLE3=Sweat Dreams
TTITLE4=Please Feed the Jukebox
TTITLE5=There Stands the Glass
TTITLE6=Faded Love
TTITLE7=What's Going On in Your World
TTITLE8=Half As Much
TTITLE9=Please Help Me I'm Falling
TTITLE10=I'm Walking the Dog
EXTD=
EXTT0=
EXTT1=
EXTT2=
EXTT3=
EXTT4=
EXTT5=
EXTT6=
EXTT7=
EXTT8=
EXTT9=
EXTT10=
PLAYORDER=
